<mxfile host="app.diagrams.net" modified="2021-04-05T15:42:07.464Z" agent="5.0 (Macintosh; Intel Mac OS X 10_15_7) AppleWebKit/605.1.15 (KHTML, like Gecko) Version/14.0 Safari/605.1.15" etag="3RIj8Zi3SAb69_f2Wyld" version="14.5.7" type="github">
  <diagram id="cdb5e136-1861-7ef1-5e76-c57f7e18aa8d" name="ERD Data Structure - Habit Tracker App">
    <mxGraphModel dx="946" dy="662" grid="1" gridSize="10" guides="1" tooltips="1" connect="1" arrows="1" fold="1" page="1" pageScale="1" pageWidth="1100" pageHeight="850" math="0" shadow="0">
      <root>
        <mxCell id="0" />
        <mxCell id="1" parent="0" />
        <mxCell id="lcivj8wxRk5je3pBpGyj-1" value="Регион" style="swimlane;fontStyle=0;childLayout=stackLayout;horizontal=1;startSize=26;fillColor=#ffe6cc;horizontalStack=0;resizeParent=1;resizeParentMax=0;resizeLast=0;collapsible=1;marginBottom=0;swimlaneFillColor=#ffffff;align=center;strokeWidth=1;fontSize=13;strokeColor=#d79b00;" vertex="1" parent="1">
          <mxGeometry x="200" y="640" width="160" height="170" as="geometry" />
        </mxCell>
        <mxCell id="lcivj8wxRk5je3pBpGyj-2" value="RegionID" style="shape=partialRectangle;top=0;left=0;right=0;bottom=1;align=left;verticalAlign=middle;fillColor=none;spacingLeft=34;spacingRight=4;overflow=hidden;rotatable=0;points=[[0,0.5],[1,0.5]];portConstraint=eastwest;dropTarget=0;fontStyle=5;" vertex="1" parent="lcivj8wxRk5je3pBpGyj-1">
          <mxGeometry y="26" width="160" height="30" as="geometry" />
        </mxCell>
        <mxCell id="lcivj8wxRk5je3pBpGyj-3" value="PK" style="shape=partialRectangle;top=0;left=0;bottom=0;fillColor=none;align=left;verticalAlign=middle;spacingLeft=4;spacingRight=4;overflow=hidden;rotatable=0;points=[];portConstraint=eastwest;part=1;fontStyle=1" vertex="1" connectable="0" parent="lcivj8wxRk5je3pBpGyj-2">
          <mxGeometry width="30" height="30" as="geometry" />
        </mxCell>
        <mxCell id="lcivj8wxRk5je3pBpGyj-6" value="Title" style="shape=partialRectangle;top=0;left=0;right=0;bottom=0;align=left;verticalAlign=top;fillColor=none;spacingLeft=34;spacingRight=4;overflow=hidden;rotatable=0;points=[[0,0.5],[1,0.5]];portConstraint=eastwest;dropTarget=0;" vertex="1" parent="lcivj8wxRk5je3pBpGyj-1">
          <mxGeometry y="56" width="160" height="26" as="geometry" />
        </mxCell>
        <mxCell id="lcivj8wxRk5je3pBpGyj-7" value="" style="shape=partialRectangle;top=0;left=0;bottom=0;fillColor=none;align=left;verticalAlign=top;spacingLeft=4;spacingRight=4;overflow=hidden;rotatable=0;points=[];portConstraint=eastwest;part=1;" vertex="1" connectable="0" parent="lcivj8wxRk5je3pBpGyj-6">
          <mxGeometry width="30" height="26" as="geometry" />
        </mxCell>
        <mxCell id="lcivj8wxRk5je3pBpGyj-28" value="Description" style="shape=partialRectangle;top=0;left=0;right=0;bottom=0;align=left;verticalAlign=top;fillColor=none;spacingLeft=34;spacingRight=4;overflow=hidden;rotatable=0;points=[[0,0.5],[1,0.5]];portConstraint=eastwest;dropTarget=0;" vertex="1" parent="lcivj8wxRk5je3pBpGyj-1">
          <mxGeometry y="82" width="160" height="26" as="geometry" />
        </mxCell>
        <mxCell id="lcivj8wxRk5je3pBpGyj-29" value="" style="shape=partialRectangle;top=0;left=0;bottom=0;fillColor=none;align=left;verticalAlign=top;spacingLeft=4;spacingRight=4;overflow=hidden;rotatable=0;points=[];portConstraint=eastwest;part=1;" vertex="1" connectable="0" parent="lcivj8wxRk5je3pBpGyj-28">
          <mxGeometry width="30" height="26" as="geometry" />
        </mxCell>
        <mxCell id="lcivj8wxRk5je3pBpGyj-8" value="IsPublished" style="shape=partialRectangle;top=0;left=0;right=0;bottom=0;align=left;verticalAlign=top;fillColor=none;spacingLeft=34;spacingRight=4;overflow=hidden;rotatable=0;points=[[0,0.5],[1,0.5]];portConstraint=eastwest;dropTarget=0;" vertex="1" parent="lcivj8wxRk5je3pBpGyj-1">
          <mxGeometry y="108" width="160" height="26" as="geometry" />
        </mxCell>
        <mxCell id="lcivj8wxRk5je3pBpGyj-9" value="" style="shape=partialRectangle;top=0;left=0;bottom=0;fillColor=none;align=left;verticalAlign=top;spacingLeft=4;spacingRight=4;overflow=hidden;rotatable=0;points=[];portConstraint=eastwest;part=1;" vertex="1" connectable="0" parent="lcivj8wxRk5je3pBpGyj-8">
          <mxGeometry width="30" height="26" as="geometry" />
        </mxCell>
        <mxCell id="lcivj8wxRk5je3pBpGyj-26" value="Cities" style="shape=partialRectangle;top=0;left=0;right=0;bottom=0;align=left;verticalAlign=top;fillColor=none;spacingLeft=34;spacingRight=4;overflow=hidden;rotatable=0;points=[[0,0.5],[1,0.5]];portConstraint=eastwest;dropTarget=0;" vertex="1" parent="lcivj8wxRk5je3pBpGyj-1">
          <mxGeometry y="134" width="160" height="26" as="geometry" />
        </mxCell>
        <mxCell id="lcivj8wxRk5je3pBpGyj-27" value="" style="shape=partialRectangle;top=0;left=0;bottom=0;fillColor=none;align=left;verticalAlign=top;spacingLeft=4;spacingRight=4;overflow=hidden;rotatable=0;points=[];portConstraint=eastwest;part=1;" vertex="1" connectable="0" parent="lcivj8wxRk5je3pBpGyj-26">
          <mxGeometry width="30" height="26" as="geometry" />
        </mxCell>
        <mxCell id="lcivj8wxRk5je3pBpGyj-10" value="" style="shape=partialRectangle;top=0;left=0;right=0;bottom=0;align=left;verticalAlign=top;fillColor=none;spacingLeft=34;spacingRight=4;overflow=hidden;rotatable=0;points=[[0,0.5],[1,0.5]];portConstraint=eastwest;dropTarget=0;" vertex="1" parent="lcivj8wxRk5je3pBpGyj-1">
          <mxGeometry y="160" width="160" height="10" as="geometry" />
        </mxCell>
        <mxCell id="lcivj8wxRk5je3pBpGyj-11" value="" style="shape=partialRectangle;top=0;left=0;bottom=0;fillColor=none;align=left;verticalAlign=top;spacingLeft=4;spacingRight=4;overflow=hidden;rotatable=0;points=[];portConstraint=eastwest;part=1;" vertex="1" connectable="0" parent="lcivj8wxRk5je3pBpGyj-10">
          <mxGeometry width="30" height="10" as="geometry" />
        </mxCell>
        <mxCell id="lcivj8wxRk5je3pBpGyj-12" value="Музей" style="swimlane;fontStyle=0;childLayout=stackLayout;horizontal=1;startSize=26;fillColor=#ffe6cc;horizontalStack=0;resizeParent=1;resizeParentMax=0;resizeLast=0;collapsible=1;marginBottom=0;swimlaneFillColor=#ffffff;align=center;strokeWidth=1;fontSize=13;strokeColor=#d79b00;" vertex="1" parent="1">
          <mxGeometry x="480" y="640" width="160" height="170" as="geometry" />
        </mxCell>
        <mxCell id="lcivj8wxRk5je3pBpGyj-13" value="MuseumID" style="shape=partialRectangle;top=0;left=0;right=0;bottom=1;align=left;verticalAlign=middle;fillColor=none;spacingLeft=34;spacingRight=4;overflow=hidden;rotatable=0;points=[[0,0.5],[1,0.5]];portConstraint=eastwest;dropTarget=0;fontStyle=5;" vertex="1" parent="lcivj8wxRk5je3pBpGyj-12">
          <mxGeometry y="26" width="160" height="30" as="geometry" />
        </mxCell>
        <mxCell id="lcivj8wxRk5je3pBpGyj-14" value="PK" style="shape=partialRectangle;top=0;left=0;bottom=0;fillColor=none;align=left;verticalAlign=middle;spacingLeft=4;spacingRight=4;overflow=hidden;rotatable=0;points=[];portConstraint=eastwest;part=1;fontStyle=1" vertex="1" connectable="0" parent="lcivj8wxRk5je3pBpGyj-13">
          <mxGeometry width="30" height="30" as="geometry" />
        </mxCell>
        <mxCell id="lcivj8wxRk5je3pBpGyj-15" value="RegionID" style="shape=partialRectangle;top=0;left=0;right=0;bottom=0;align=left;verticalAlign=top;fillColor=none;spacingLeft=34;spacingRight=4;overflow=hidden;rotatable=0;points=[[0,0.5],[1,0.5]];portConstraint=eastwest;dropTarget=0;fontStyle=2" vertex="1" parent="lcivj8wxRk5je3pBpGyj-12">
          <mxGeometry y="56" width="160" height="26" as="geometry" />
        </mxCell>
        <mxCell id="lcivj8wxRk5je3pBpGyj-16" value="FK" style="shape=partialRectangle;top=0;left=0;bottom=0;fillColor=none;align=left;verticalAlign=top;spacingLeft=4;spacingRight=4;overflow=hidden;rotatable=0;points=[];portConstraint=eastwest;part=1;fontStyle=2" vertex="1" connectable="0" parent="lcivj8wxRk5je3pBpGyj-15">
          <mxGeometry width="30" height="26" as="geometry" />
        </mxCell>
        <mxCell id="lcivj8wxRk5je3pBpGyj-17" value="Title" style="shape=partialRectangle;top=0;left=0;right=0;bottom=0;align=left;verticalAlign=top;fillColor=none;spacingLeft=34;spacingRight=4;overflow=hidden;rotatable=0;points=[[0,0.5],[1,0.5]];portConstraint=eastwest;dropTarget=0;" vertex="1" parent="lcivj8wxRk5je3pBpGyj-12">
          <mxGeometry y="82" width="160" height="26" as="geometry" />
        </mxCell>
        <mxCell id="lcivj8wxRk5je3pBpGyj-18" value="" style="shape=partialRectangle;top=0;left=0;bottom=0;fillColor=none;align=left;verticalAlign=top;spacingLeft=4;spacingRight=4;overflow=hidden;rotatable=0;points=[];portConstraint=eastwest;part=1;" vertex="1" connectable="0" parent="lcivj8wxRk5je3pBpGyj-17">
          <mxGeometry width="30" height="26" as="geometry" />
        </mxCell>
        <mxCell id="lcivj8wxRk5je3pBpGyj-19" value="MainPhoto" style="shape=partialRectangle;top=0;left=0;right=0;bottom=0;align=left;verticalAlign=top;fillColor=none;spacingLeft=34;spacingRight=4;overflow=hidden;rotatable=0;points=[[0,0.5],[1,0.5]];portConstraint=eastwest;dropTarget=0;" vertex="1" parent="lcivj8wxRk5je3pBpGyj-12">
          <mxGeometry y="108" width="160" height="26" as="geometry" />
        </mxCell>
        <mxCell id="lcivj8wxRk5je3pBpGyj-20" value="" style="shape=partialRectangle;top=0;left=0;bottom=0;fillColor=none;align=left;verticalAlign=top;spacingLeft=4;spacingRight=4;overflow=hidden;rotatable=0;points=[];portConstraint=eastwest;part=1;" vertex="1" connectable="0" parent="lcivj8wxRk5je3pBpGyj-19">
          <mxGeometry width="30" height="26" as="geometry" />
        </mxCell>
        <mxCell id="lcivj8wxRk5je3pBpGyj-79" value="IsPublished" style="shape=partialRectangle;top=0;left=0;right=0;bottom=0;align=left;verticalAlign=top;fillColor=none;spacingLeft=34;spacingRight=4;overflow=hidden;rotatable=0;points=[[0,0.5],[1,0.5]];portConstraint=eastwest;dropTarget=0;" vertex="1" parent="lcivj8wxRk5je3pBpGyj-12">
          <mxGeometry y="134" width="160" height="26" as="geometry" />
        </mxCell>
        <mxCell id="lcivj8wxRk5je3pBpGyj-80" value="" style="shape=partialRectangle;top=0;left=0;bottom=0;fillColor=none;align=left;verticalAlign=top;spacingLeft=4;spacingRight=4;overflow=hidden;rotatable=0;points=[];portConstraint=eastwest;part=1;" vertex="1" connectable="0" parent="lcivj8wxRk5je3pBpGyj-79">
          <mxGeometry width="30" height="26" as="geometry" />
        </mxCell>
        <mxCell id="lcivj8wxRk5je3pBpGyj-21" value="" style="shape=partialRectangle;top=0;left=0;right=0;bottom=0;align=left;verticalAlign=top;fillColor=none;spacingLeft=34;spacingRight=4;overflow=hidden;rotatable=0;points=[[0,0.5],[1,0.5]];portConstraint=eastwest;dropTarget=0;" vertex="1" parent="lcivj8wxRk5je3pBpGyj-12">
          <mxGeometry y="160" width="160" height="10" as="geometry" />
        </mxCell>
        <mxCell id="lcivj8wxRk5je3pBpGyj-22" value="" style="shape=partialRectangle;top=0;left=0;bottom=0;fillColor=none;align=left;verticalAlign=top;spacingLeft=4;spacingRight=4;overflow=hidden;rotatable=0;points=[];portConstraint=eastwest;part=1;" vertex="1" connectable="0" parent="lcivj8wxRk5je3pBpGyj-21">
          <mxGeometry width="30" height="10" as="geometry" />
        </mxCell>
        <mxCell id="lcivj8wxRk5je3pBpGyj-23" value="" style="edgeStyle=orthogonalEdgeStyle;fontSize=12;html=1;endArrow=ERoneToMany;startArrow=ERmandOne;" edge="1" parent="1" source="lcivj8wxRk5je3pBpGyj-1" target="lcivj8wxRk5je3pBpGyj-12">
          <mxGeometry width="100" height="100" relative="1" as="geometry">
            <mxPoint x="550" y="590" as="sourcePoint" />
            <mxPoint x="650" y="490" as="targetPoint" />
          </mxGeometry>
        </mxCell>
        <mxCell id="lcivj8wxRk5je3pBpGyj-30" value="Билет" style="swimlane;fontStyle=0;childLayout=stackLayout;horizontal=1;startSize=26;fillColor=#ffe6cc;horizontalStack=0;resizeParent=1;resizeParentMax=0;resizeLast=0;collapsible=1;marginBottom=0;swimlaneFillColor=#ffffff;align=center;strokeWidth=1;fontSize=13;strokeColor=#d79b00;" vertex="1" parent="1">
          <mxGeometry x="760" y="760" width="160" height="170" as="geometry" />
        </mxCell>
        <mxCell id="lcivj8wxRk5je3pBpGyj-31" value="TicketID" style="shape=partialRectangle;top=0;left=0;right=0;bottom=1;align=left;verticalAlign=middle;fillColor=none;spacingLeft=34;spacingRight=4;overflow=hidden;rotatable=0;points=[[0,0.5],[1,0.5]];portConstraint=eastwest;dropTarget=0;fontStyle=5;" vertex="1" parent="lcivj8wxRk5je3pBpGyj-30">
          <mxGeometry y="26" width="160" height="30" as="geometry" />
        </mxCell>
        <mxCell id="lcivj8wxRk5je3pBpGyj-32" value="PK" style="shape=partialRectangle;top=0;left=0;bottom=0;fillColor=none;align=left;verticalAlign=middle;spacingLeft=4;spacingRight=4;overflow=hidden;rotatable=0;points=[];portConstraint=eastwest;part=1;fontStyle=1" vertex="1" connectable="0" parent="lcivj8wxRk5je3pBpGyj-31">
          <mxGeometry width="30" height="30" as="geometry" />
        </mxCell>
        <mxCell id="lcivj8wxRk5je3pBpGyj-33" value="MuseumID" style="shape=partialRectangle;top=0;left=0;right=0;bottom=0;align=left;verticalAlign=top;fillColor=none;spacingLeft=34;spacingRight=4;overflow=hidden;rotatable=0;points=[[0,0.5],[1,0.5]];portConstraint=eastwest;dropTarget=0;fontStyle=2" vertex="1" parent="lcivj8wxRk5je3pBpGyj-30">
          <mxGeometry y="56" width="160" height="26" as="geometry" />
        </mxCell>
        <mxCell id="lcivj8wxRk5je3pBpGyj-34" value="FK" style="shape=partialRectangle;top=0;left=0;bottom=0;fillColor=none;align=left;verticalAlign=top;spacingLeft=4;spacingRight=4;overflow=hidden;rotatable=0;points=[];portConstraint=eastwest;part=1;fontStyle=2" vertex="1" connectable="0" parent="lcivj8wxRk5je3pBpGyj-33">
          <mxGeometry width="30" height="26" as="geometry" />
        </mxCell>
        <mxCell id="lcivj8wxRk5je3pBpGyj-35" value="Description" style="shape=partialRectangle;top=0;left=0;right=0;bottom=0;align=left;verticalAlign=top;fillColor=none;spacingLeft=34;spacingRight=4;overflow=hidden;rotatable=0;points=[[0,0.5],[1,0.5]];portConstraint=eastwest;dropTarget=0;" vertex="1" parent="lcivj8wxRk5je3pBpGyj-30">
          <mxGeometry y="82" width="160" height="26" as="geometry" />
        </mxCell>
        <mxCell id="lcivj8wxRk5je3pBpGyj-36" value="" style="shape=partialRectangle;top=0;left=0;bottom=0;fillColor=none;align=left;verticalAlign=top;spacingLeft=4;spacingRight=4;overflow=hidden;rotatable=0;points=[];portConstraint=eastwest;part=1;" vertex="1" connectable="0" parent="lcivj8wxRk5je3pBpGyj-35">
          <mxGeometry width="30" height="26" as="geometry" />
        </mxCell>
        <mxCell id="lcivj8wxRk5je3pBpGyj-37" value="Time" style="shape=partialRectangle;top=0;left=0;right=0;bottom=0;align=left;verticalAlign=top;fillColor=none;spacingLeft=34;spacingRight=4;overflow=hidden;rotatable=0;points=[[0,0.5],[1,0.5]];portConstraint=eastwest;dropTarget=0;" vertex="1" parent="lcivj8wxRk5je3pBpGyj-30">
          <mxGeometry y="108" width="160" height="26" as="geometry" />
        </mxCell>
        <mxCell id="lcivj8wxRk5je3pBpGyj-38" value="" style="shape=partialRectangle;top=0;left=0;bottom=0;fillColor=none;align=left;verticalAlign=top;spacingLeft=4;spacingRight=4;overflow=hidden;rotatable=0;points=[];portConstraint=eastwest;part=1;" vertex="1" connectable="0" parent="lcivj8wxRk5je3pBpGyj-37">
          <mxGeometry width="30" height="26" as="geometry" />
        </mxCell>
        <mxCell id="lcivj8wxRk5je3pBpGyj-95" value="Price" style="shape=partialRectangle;top=0;left=0;right=0;bottom=0;align=left;verticalAlign=top;fillColor=none;spacingLeft=34;spacingRight=4;overflow=hidden;rotatable=0;points=[[0,0.5],[1,0.5]];portConstraint=eastwest;dropTarget=0;" vertex="1" parent="lcivj8wxRk5je3pBpGyj-30">
          <mxGeometry y="134" width="160" height="26" as="geometry" />
        </mxCell>
        <mxCell id="lcivj8wxRk5je3pBpGyj-96" value="" style="shape=partialRectangle;top=0;left=0;bottom=0;fillColor=none;align=left;verticalAlign=top;spacingLeft=4;spacingRight=4;overflow=hidden;rotatable=0;points=[];portConstraint=eastwest;part=1;" vertex="1" connectable="0" parent="lcivj8wxRk5je3pBpGyj-95">
          <mxGeometry width="30" height="26" as="geometry" />
        </mxCell>
        <mxCell id="lcivj8wxRk5je3pBpGyj-39" value="" style="shape=partialRectangle;top=0;left=0;right=0;bottom=0;align=left;verticalAlign=top;fillColor=none;spacingLeft=34;spacingRight=4;overflow=hidden;rotatable=0;points=[[0,0.5],[1,0.5]];portConstraint=eastwest;dropTarget=0;" vertex="1" parent="lcivj8wxRk5je3pBpGyj-30">
          <mxGeometry y="160" width="160" height="10" as="geometry" />
        </mxCell>
        <mxCell id="lcivj8wxRk5je3pBpGyj-40" value="" style="shape=partialRectangle;top=0;left=0;bottom=0;fillColor=none;align=left;verticalAlign=top;spacingLeft=4;spacingRight=4;overflow=hidden;rotatable=0;points=[];portConstraint=eastwest;part=1;" vertex="1" connectable="0" parent="lcivj8wxRk5je3pBpGyj-39">
          <mxGeometry width="30" height="10" as="geometry" />
        </mxCell>
        <mxCell id="lcivj8wxRk5je3pBpGyj-41" value="Компания" style="swimlane;fontStyle=0;childLayout=stackLayout;horizontal=1;startSize=26;fillColor=#ffe6cc;horizontalStack=0;resizeParent=1;resizeParentMax=0;resizeLast=0;collapsible=1;marginBottom=0;swimlaneFillColor=#ffffff;align=center;strokeWidth=1;fontSize=13;strokeColor=#d79b00;" vertex="1" parent="1">
          <mxGeometry x="760" y="383" width="160" height="278" as="geometry" />
        </mxCell>
        <mxCell id="lcivj8wxRk5je3pBpGyj-158" value="CompanyKey" style="shape=partialRectangle;top=0;left=0;right=0;bottom=1;align=left;verticalAlign=middle;fillColor=none;spacingLeft=34;spacingRight=4;overflow=hidden;rotatable=0;points=[[0,0.5],[1,0.5]];portConstraint=eastwest;dropTarget=0;fontStyle=5;" vertex="1" parent="lcivj8wxRk5je3pBpGyj-41">
          <mxGeometry y="26" width="160" height="30" as="geometry" />
        </mxCell>
        <mxCell id="lcivj8wxRk5je3pBpGyj-159" value="SK" style="shape=partialRectangle;top=0;left=0;bottom=0;fillColor=none;align=left;verticalAlign=middle;spacingLeft=4;spacingRight=4;overflow=hidden;rotatable=0;points=[];portConstraint=eastwest;part=1;fontStyle=1" vertex="1" connectable="0" parent="lcivj8wxRk5je3pBpGyj-158">
          <mxGeometry width="30" height="30" as="geometry" />
        </mxCell>
        <mxCell id="lcivj8wxRk5je3pBpGyj-42" value="INN" style="shape=partialRectangle;top=0;left=0;right=0;bottom=1;align=left;verticalAlign=middle;fillColor=none;spacingLeft=34;spacingRight=4;overflow=hidden;rotatable=0;points=[[0,0.5],[1,0.5]];portConstraint=eastwest;dropTarget=0;fontStyle=5;" vertex="1" parent="lcivj8wxRk5je3pBpGyj-41">
          <mxGeometry y="56" width="160" height="30" as="geometry" />
        </mxCell>
        <mxCell id="lcivj8wxRk5je3pBpGyj-43" value="BK" style="shape=partialRectangle;top=0;left=0;bottom=0;fillColor=none;align=left;verticalAlign=middle;spacingLeft=4;spacingRight=4;overflow=hidden;rotatable=0;points=[];portConstraint=eastwest;part=1;fontStyle=1" vertex="1" connectable="0" parent="lcivj8wxRk5je3pBpGyj-42">
          <mxGeometry width="30" height="30" as="geometry" />
        </mxCell>
        <mxCell id="lcivj8wxRk5je3pBpGyj-46" value="Name" style="shape=partialRectangle;top=0;left=0;right=0;bottom=0;align=left;verticalAlign=top;fillColor=none;spacingLeft=34;spacingRight=4;overflow=hidden;rotatable=0;points=[[0,0.5],[1,0.5]];portConstraint=eastwest;dropTarget=0;" vertex="1" parent="lcivj8wxRk5je3pBpGyj-41">
          <mxGeometry y="86" width="160" height="26" as="geometry" />
        </mxCell>
        <mxCell id="lcivj8wxRk5je3pBpGyj-47" value="" style="shape=partialRectangle;top=0;left=0;bottom=0;fillColor=none;align=left;verticalAlign=top;spacingLeft=4;spacingRight=4;overflow=hidden;rotatable=0;points=[];portConstraint=eastwest;part=1;" vertex="1" connectable="0" parent="lcivj8wxRk5je3pBpGyj-46">
          <mxGeometry width="30" height="26" as="geometry" />
        </mxCell>
        <mxCell id="lcivj8wxRk5je3pBpGyj-48" value="Email" style="shape=partialRectangle;top=0;left=0;right=0;bottom=0;align=left;verticalAlign=top;fillColor=none;spacingLeft=34;spacingRight=4;overflow=hidden;rotatable=0;points=[[0,0.5],[1,0.5]];portConstraint=eastwest;dropTarget=0;" vertex="1" parent="lcivj8wxRk5je3pBpGyj-41">
          <mxGeometry y="112" width="160" height="26" as="geometry" />
        </mxCell>
        <mxCell id="lcivj8wxRk5je3pBpGyj-49" value="" style="shape=partialRectangle;top=0;left=0;bottom=0;fillColor=none;align=left;verticalAlign=top;spacingLeft=4;spacingRight=4;overflow=hidden;rotatable=0;points=[];portConstraint=eastwest;part=1;" vertex="1" connectable="0" parent="lcivj8wxRk5je3pBpGyj-48">
          <mxGeometry width="30" height="26" as="geometry" />
        </mxCell>
        <mxCell id="lcivj8wxRk5je3pBpGyj-81" value="Address" style="shape=partialRectangle;top=0;left=0;right=0;bottom=0;align=left;verticalAlign=top;fillColor=none;spacingLeft=34;spacingRight=4;overflow=hidden;rotatable=0;points=[[0,0.5],[1,0.5]];portConstraint=eastwest;dropTarget=0;" vertex="1" parent="lcivj8wxRk5je3pBpGyj-41">
          <mxGeometry y="138" width="160" height="26" as="geometry" />
        </mxCell>
        <mxCell id="lcivj8wxRk5je3pBpGyj-82" value="" style="shape=partialRectangle;top=0;left=0;bottom=0;fillColor=none;align=left;verticalAlign=top;spacingLeft=4;spacingRight=4;overflow=hidden;rotatable=0;points=[];portConstraint=eastwest;part=1;" vertex="1" connectable="0" parent="lcivj8wxRk5je3pBpGyj-81">
          <mxGeometry width="30" height="26" as="geometry" />
        </mxCell>
        <mxCell id="lcivj8wxRk5je3pBpGyj-85" value="PaymentAccount" style="shape=partialRectangle;top=0;left=0;right=0;bottom=0;align=left;verticalAlign=top;fillColor=none;spacingLeft=34;spacingRight=4;overflow=hidden;rotatable=0;points=[[0,0.5],[1,0.5]];portConstraint=eastwest;dropTarget=0;" vertex="1" parent="lcivj8wxRk5je3pBpGyj-41">
          <mxGeometry y="164" width="160" height="26" as="geometry" />
        </mxCell>
        <mxCell id="lcivj8wxRk5je3pBpGyj-86" value="" style="shape=partialRectangle;top=0;left=0;bottom=0;fillColor=none;align=left;verticalAlign=top;spacingLeft=4;spacingRight=4;overflow=hidden;rotatable=0;points=[];portConstraint=eastwest;part=1;" vertex="1" connectable="0" parent="lcivj8wxRk5je3pBpGyj-85">
          <mxGeometry width="30" height="26" as="geometry" />
        </mxCell>
        <mxCell id="lcivj8wxRk5je3pBpGyj-87" value="VerificationStatus" style="shape=partialRectangle;top=0;left=0;right=0;bottom=0;align=left;verticalAlign=top;fillColor=none;spacingLeft=34;spacingRight=4;overflow=hidden;rotatable=0;points=[[0,0.5],[1,0.5]];portConstraint=eastwest;dropTarget=0;" vertex="1" parent="lcivj8wxRk5je3pBpGyj-41">
          <mxGeometry y="190" width="160" height="26" as="geometry" />
        </mxCell>
        <mxCell id="lcivj8wxRk5je3pBpGyj-88" value="" style="shape=partialRectangle;top=0;left=0;bottom=0;fillColor=none;align=left;verticalAlign=top;spacingLeft=4;spacingRight=4;overflow=hidden;rotatable=0;points=[];portConstraint=eastwest;part=1;" vertex="1" connectable="0" parent="lcivj8wxRk5je3pBpGyj-87">
          <mxGeometry width="30" height="26" as="geometry" />
        </mxCell>
        <mxCell id="lcivj8wxRk5je3pBpGyj-154" value="EffectiveDateStart" style="shape=partialRectangle;top=0;left=0;right=0;bottom=0;align=left;verticalAlign=top;fillColor=none;spacingLeft=34;spacingRight=4;overflow=hidden;rotatable=0;points=[[0,0.5],[1,0.5]];portConstraint=eastwest;dropTarget=0;" vertex="1" parent="lcivj8wxRk5je3pBpGyj-41">
          <mxGeometry y="216" width="160" height="26" as="geometry" />
        </mxCell>
        <mxCell id="lcivj8wxRk5je3pBpGyj-155" value="" style="shape=partialRectangle;top=0;left=0;bottom=0;fillColor=none;align=left;verticalAlign=top;spacingLeft=4;spacingRight=4;overflow=hidden;rotatable=0;points=[];portConstraint=eastwest;part=1;" vertex="1" connectable="0" parent="lcivj8wxRk5je3pBpGyj-154">
          <mxGeometry width="30" height="26" as="geometry" />
        </mxCell>
        <mxCell id="lcivj8wxRk5je3pBpGyj-156" value="EffectiveDateEnd" style="shape=partialRectangle;top=0;left=0;right=0;bottom=0;align=left;verticalAlign=top;fillColor=none;spacingLeft=34;spacingRight=4;overflow=hidden;rotatable=0;points=[[0,0.5],[1,0.5]];portConstraint=eastwest;dropTarget=0;" vertex="1" parent="lcivj8wxRk5je3pBpGyj-41">
          <mxGeometry y="242" width="160" height="26" as="geometry" />
        </mxCell>
        <mxCell id="lcivj8wxRk5je3pBpGyj-157" value="" style="shape=partialRectangle;top=0;left=0;bottom=0;fillColor=none;align=left;verticalAlign=top;spacingLeft=4;spacingRight=4;overflow=hidden;rotatable=0;points=[];portConstraint=eastwest;part=1;" vertex="1" connectable="0" parent="lcivj8wxRk5je3pBpGyj-156">
          <mxGeometry width="30" height="26" as="geometry" />
        </mxCell>
        <mxCell id="lcivj8wxRk5je3pBpGyj-50" value="" style="shape=partialRectangle;top=0;left=0;right=0;bottom=0;align=left;verticalAlign=top;fillColor=none;spacingLeft=34;spacingRight=4;overflow=hidden;rotatable=0;points=[[0,0.5],[1,0.5]];portConstraint=eastwest;dropTarget=0;" vertex="1" parent="lcivj8wxRk5je3pBpGyj-41">
          <mxGeometry y="268" width="160" height="10" as="geometry" />
        </mxCell>
        <mxCell id="lcivj8wxRk5je3pBpGyj-51" value="" style="shape=partialRectangle;top=0;left=0;bottom=0;fillColor=none;align=left;verticalAlign=top;spacingLeft=4;spacingRight=4;overflow=hidden;rotatable=0;points=[];portConstraint=eastwest;part=1;" vertex="1" connectable="0" parent="lcivj8wxRk5je3pBpGyj-50">
          <mxGeometry width="30" height="10" as="geometry" />
        </mxCell>
        <mxCell id="lcivj8wxRk5je3pBpGyj-52" value="Транзация" style="swimlane;fontStyle=0;childLayout=stackLayout;horizontal=1;startSize=26;fillColor=#ffe6cc;horizontalStack=0;resizeParent=1;resizeParentMax=0;resizeLast=0;collapsible=1;marginBottom=0;swimlaneFillColor=#ffffff;align=center;strokeWidth=1;fontSize=13;strokeColor=#d79b00;" vertex="1" parent="1">
          <mxGeometry x="1040" y="640" width="160" height="170" as="geometry" />
        </mxCell>
        <mxCell id="lcivj8wxRk5je3pBpGyj-53" value="TransactionID" style="shape=partialRectangle;top=0;left=0;right=0;bottom=1;align=left;verticalAlign=middle;fillColor=none;spacingLeft=34;spacingRight=4;overflow=hidden;rotatable=0;points=[[0,0.5],[1,0.5]];portConstraint=eastwest;dropTarget=0;fontStyle=5;" vertex="1" parent="lcivj8wxRk5je3pBpGyj-52">
          <mxGeometry y="26" width="160" height="30" as="geometry" />
        </mxCell>
        <mxCell id="lcivj8wxRk5je3pBpGyj-54" value="PK" style="shape=partialRectangle;top=0;left=0;bottom=0;fillColor=none;align=left;verticalAlign=middle;spacingLeft=4;spacingRight=4;overflow=hidden;rotatable=0;points=[];portConstraint=eastwest;part=1;fontStyle=1" vertex="1" connectable="0" parent="lcivj8wxRk5je3pBpGyj-53">
          <mxGeometry width="30" height="30" as="geometry" />
        </mxCell>
        <mxCell id="lcivj8wxRk5je3pBpGyj-55" value="CompanyID" style="shape=partialRectangle;top=0;left=0;right=0;bottom=0;align=left;verticalAlign=top;fillColor=none;spacingLeft=34;spacingRight=4;overflow=hidden;rotatable=0;points=[[0,0.5],[1,0.5]];portConstraint=eastwest;dropTarget=0;fontStyle=2" vertex="1" parent="lcivj8wxRk5je3pBpGyj-52">
          <mxGeometry y="56" width="160" height="26" as="geometry" />
        </mxCell>
        <mxCell id="lcivj8wxRk5je3pBpGyj-56" value="FK" style="shape=partialRectangle;top=0;left=0;bottom=0;fillColor=none;align=left;verticalAlign=top;spacingLeft=4;spacingRight=4;overflow=hidden;rotatable=0;points=[];portConstraint=eastwest;part=1;fontStyle=2" vertex="1" connectable="0" parent="lcivj8wxRk5je3pBpGyj-55">
          <mxGeometry width="30" height="26" as="geometry" />
        </mxCell>
        <mxCell id="lcivj8wxRk5je3pBpGyj-93" value="TicketID" style="shape=partialRectangle;top=0;left=0;right=0;bottom=0;align=left;verticalAlign=top;fillColor=none;spacingLeft=34;spacingRight=4;overflow=hidden;rotatable=0;points=[[0,0.5],[1,0.5]];portConstraint=eastwest;dropTarget=0;fontStyle=2" vertex="1" parent="lcivj8wxRk5je3pBpGyj-52">
          <mxGeometry y="82" width="160" height="26" as="geometry" />
        </mxCell>
        <mxCell id="lcivj8wxRk5je3pBpGyj-94" value="FK" style="shape=partialRectangle;top=0;left=0;bottom=0;fillColor=none;align=left;verticalAlign=top;spacingLeft=4;spacingRight=4;overflow=hidden;rotatable=0;points=[];portConstraint=eastwest;part=1;fontStyle=2" vertex="1" connectable="0" parent="lcivj8wxRk5je3pBpGyj-93">
          <mxGeometry width="30" height="26" as="geometry" />
        </mxCell>
        <mxCell id="lcivj8wxRk5je3pBpGyj-59" value="Status" style="shape=partialRectangle;top=0;left=0;right=0;bottom=0;align=left;verticalAlign=top;fillColor=none;spacingLeft=34;spacingRight=4;overflow=hidden;rotatable=0;points=[[0,0.5],[1,0.5]];portConstraint=eastwest;dropTarget=0;" vertex="1" parent="lcivj8wxRk5je3pBpGyj-52">
          <mxGeometry y="108" width="160" height="26" as="geometry" />
        </mxCell>
        <mxCell id="lcivj8wxRk5je3pBpGyj-60" value="" style="shape=partialRectangle;top=0;left=0;bottom=0;fillColor=none;align=left;verticalAlign=top;spacingLeft=4;spacingRight=4;overflow=hidden;rotatable=0;points=[];portConstraint=eastwest;part=1;" vertex="1" connectable="0" parent="lcivj8wxRk5je3pBpGyj-59">
          <mxGeometry width="30" height="26" as="geometry" />
        </mxCell>
        <mxCell id="lcivj8wxRk5je3pBpGyj-160" value="Date" style="shape=partialRectangle;top=0;left=0;right=0;bottom=0;align=left;verticalAlign=top;fillColor=none;spacingLeft=34;spacingRight=4;overflow=hidden;rotatable=0;points=[[0,0.5],[1,0.5]];portConstraint=eastwest;dropTarget=0;" vertex="1" parent="lcivj8wxRk5je3pBpGyj-52">
          <mxGeometry y="134" width="160" height="26" as="geometry" />
        </mxCell>
        <mxCell id="lcivj8wxRk5je3pBpGyj-161" value="" style="shape=partialRectangle;top=0;left=0;bottom=0;fillColor=none;align=left;verticalAlign=top;spacingLeft=4;spacingRight=4;overflow=hidden;rotatable=0;points=[];portConstraint=eastwest;part=1;" vertex="1" connectable="0" parent="lcivj8wxRk5je3pBpGyj-160">
          <mxGeometry width="30" height="26" as="geometry" />
        </mxCell>
        <mxCell id="lcivj8wxRk5je3pBpGyj-61" value="" style="shape=partialRectangle;top=0;left=0;right=0;bottom=0;align=left;verticalAlign=top;fillColor=none;spacingLeft=34;spacingRight=4;overflow=hidden;rotatable=0;points=[[0,0.5],[1,0.5]];portConstraint=eastwest;dropTarget=0;" vertex="1" parent="lcivj8wxRk5je3pBpGyj-52">
          <mxGeometry y="160" width="160" height="10" as="geometry" />
        </mxCell>
        <mxCell id="lcivj8wxRk5je3pBpGyj-62" value="" style="shape=partialRectangle;top=0;left=0;bottom=0;fillColor=none;align=left;verticalAlign=top;spacingLeft=4;spacingRight=4;overflow=hidden;rotatable=0;points=[];portConstraint=eastwest;part=1;" vertex="1" connectable="0" parent="lcivj8wxRk5je3pBpGyj-61">
          <mxGeometry width="30" height="10" as="geometry" />
        </mxCell>
        <mxCell id="lcivj8wxRk5je3pBpGyj-63" value="Клиент" style="swimlane;fontStyle=0;childLayout=stackLayout;horizontal=1;startSize=26;fillColor=#ffe6cc;horizontalStack=0;resizeParent=1;resizeParentMax=0;resizeLast=0;collapsible=1;marginBottom=0;swimlaneFillColor=#ffffff;align=center;strokeWidth=1;fontSize=13;strokeColor=#d79b00;" vertex="1" parent="1">
          <mxGeometry x="1480" y="640" width="160" height="170" as="geometry" />
        </mxCell>
        <mxCell id="lcivj8wxRk5je3pBpGyj-64" value="ClientID" style="shape=partialRectangle;top=0;left=0;right=0;bottom=1;align=left;verticalAlign=middle;fillColor=none;spacingLeft=34;spacingRight=4;overflow=hidden;rotatable=0;points=[[0,0.5],[1,0.5]];portConstraint=eastwest;dropTarget=0;fontStyle=5;" vertex="1" parent="lcivj8wxRk5je3pBpGyj-63">
          <mxGeometry y="26" width="160" height="30" as="geometry" />
        </mxCell>
        <mxCell id="lcivj8wxRk5je3pBpGyj-65" value="PK" style="shape=partialRectangle;top=0;left=0;bottom=0;fillColor=none;align=left;verticalAlign=middle;spacingLeft=4;spacingRight=4;overflow=hidden;rotatable=0;points=[];portConstraint=eastwest;part=1;fontStyle=1" vertex="1" connectable="0" parent="lcivj8wxRk5je3pBpGyj-64">
          <mxGeometry width="30" height="30" as="geometry" />
        </mxCell>
        <mxCell id="lcivj8wxRk5je3pBpGyj-68" value="Name" style="shape=partialRectangle;top=0;left=0;right=0;bottom=0;align=left;verticalAlign=top;fillColor=none;spacingLeft=34;spacingRight=4;overflow=hidden;rotatable=0;points=[[0,0.5],[1,0.5]];portConstraint=eastwest;dropTarget=0;" vertex="1" parent="lcivj8wxRk5je3pBpGyj-63">
          <mxGeometry y="56" width="160" height="26" as="geometry" />
        </mxCell>
        <mxCell id="lcivj8wxRk5je3pBpGyj-69" value="" style="shape=partialRectangle;top=0;left=0;bottom=0;fillColor=none;align=left;verticalAlign=top;spacingLeft=4;spacingRight=4;overflow=hidden;rotatable=0;points=[];portConstraint=eastwest;part=1;" vertex="1" connectable="0" parent="lcivj8wxRk5je3pBpGyj-68">
          <mxGeometry width="30" height="26" as="geometry" />
        </mxCell>
        <mxCell id="lcivj8wxRk5je3pBpGyj-99" value="Email" style="shape=partialRectangle;top=0;left=0;right=0;bottom=0;align=left;verticalAlign=top;fillColor=none;spacingLeft=34;spacingRight=4;overflow=hidden;rotatable=0;points=[[0,0.5],[1,0.5]];portConstraint=eastwest;dropTarget=0;" vertex="1" parent="lcivj8wxRk5je3pBpGyj-63">
          <mxGeometry y="82" width="160" height="26" as="geometry" />
        </mxCell>
        <mxCell id="lcivj8wxRk5je3pBpGyj-100" value="" style="shape=partialRectangle;top=0;left=0;bottom=0;fillColor=none;align=left;verticalAlign=top;spacingLeft=4;spacingRight=4;overflow=hidden;rotatable=0;points=[];portConstraint=eastwest;part=1;" vertex="1" connectable="0" parent="lcivj8wxRk5je3pBpGyj-99">
          <mxGeometry width="30" height="26" as="geometry" />
        </mxCell>
        <mxCell id="lcivj8wxRk5je3pBpGyj-101" value="Password" style="shape=partialRectangle;top=0;left=0;right=0;bottom=0;align=left;verticalAlign=top;fillColor=none;spacingLeft=34;spacingRight=4;overflow=hidden;rotatable=0;points=[[0,0.5],[1,0.5]];portConstraint=eastwest;dropTarget=0;" vertex="1" parent="lcivj8wxRk5je3pBpGyj-63">
          <mxGeometry y="108" width="160" height="26" as="geometry" />
        </mxCell>
        <mxCell id="lcivj8wxRk5je3pBpGyj-102" value="" style="shape=partialRectangle;top=0;left=0;bottom=0;fillColor=none;align=left;verticalAlign=top;spacingLeft=4;spacingRight=4;overflow=hidden;rotatable=0;points=[];portConstraint=eastwest;part=1;" vertex="1" connectable="0" parent="lcivj8wxRk5je3pBpGyj-101">
          <mxGeometry width="30" height="26" as="geometry" />
        </mxCell>
        <mxCell id="lcivj8wxRk5je3pBpGyj-70" value="PaymentAccount" style="shape=partialRectangle;top=0;left=0;right=0;bottom=0;align=left;verticalAlign=top;fillColor=none;spacingLeft=34;spacingRight=4;overflow=hidden;rotatable=0;points=[[0,0.5],[1,0.5]];portConstraint=eastwest;dropTarget=0;" vertex="1" parent="lcivj8wxRk5je3pBpGyj-63">
          <mxGeometry y="134" width="160" height="26" as="geometry" />
        </mxCell>
        <mxCell id="lcivj8wxRk5je3pBpGyj-71" value="" style="shape=partialRectangle;top=0;left=0;bottom=0;fillColor=none;align=left;verticalAlign=top;spacingLeft=4;spacingRight=4;overflow=hidden;rotatable=0;points=[];portConstraint=eastwest;part=1;" vertex="1" connectable="0" parent="lcivj8wxRk5je3pBpGyj-70">
          <mxGeometry width="30" height="26" as="geometry" />
        </mxCell>
        <mxCell id="lcivj8wxRk5je3pBpGyj-72" value="" style="shape=partialRectangle;top=0;left=0;right=0;bottom=0;align=left;verticalAlign=top;fillColor=none;spacingLeft=34;spacingRight=4;overflow=hidden;rotatable=0;points=[[0,0.5],[1,0.5]];portConstraint=eastwest;dropTarget=0;" vertex="1" parent="lcivj8wxRk5je3pBpGyj-63">
          <mxGeometry y="160" width="160" height="10" as="geometry" />
        </mxCell>
        <mxCell id="lcivj8wxRk5je3pBpGyj-73" value="" style="shape=partialRectangle;top=0;left=0;bottom=0;fillColor=none;align=left;verticalAlign=top;spacingLeft=4;spacingRight=4;overflow=hidden;rotatable=0;points=[];portConstraint=eastwest;part=1;" vertex="1" connectable="0" parent="lcivj8wxRk5je3pBpGyj-72">
          <mxGeometry width="30" height="10" as="geometry" />
        </mxCell>
        <mxCell id="lcivj8wxRk5je3pBpGyj-75" value="" style="edgeStyle=orthogonalEdgeStyle;fontSize=12;html=1;endArrow=ERzeroToMany;startArrow=ERmandOne;exitX=0.494;exitY=1.1;exitDx=0;exitDy=0;exitPerimeter=0;" edge="1" parent="1" source="lcivj8wxRk5je3pBpGyj-21" target="lcivj8wxRk5je3pBpGyj-30">
          <mxGeometry width="100" height="100" relative="1" as="geometry">
            <mxPoint x="700" y="740" as="sourcePoint" />
            <mxPoint x="800" y="640" as="targetPoint" />
          </mxGeometry>
        </mxCell>
        <mxCell id="lcivj8wxRk5je3pBpGyj-76" value="" style="edgeStyle=orthogonalEdgeStyle;fontSize=12;html=1;endArrow=ERzeroToOne;startArrow=ERmandOne;" edge="1" parent="1" source="lcivj8wxRk5je3pBpGyj-30" target="lcivj8wxRk5je3pBpGyj-52">
          <mxGeometry width="100" height="100" relative="1" as="geometry">
            <mxPoint x="700" y="740" as="sourcePoint" />
            <mxPoint x="1120" y="784" as="targetPoint" />
            <Array as="points">
              <mxPoint x="1120" y="860" />
            </Array>
          </mxGeometry>
        </mxCell>
        <mxCell id="lcivj8wxRk5je3pBpGyj-77" value="" style="edgeStyle=orthogonalEdgeStyle;fontSize=12;html=1;endArrow=ERzeroToMany;startArrow=ERmandOne;entryX=0.5;entryY=0;entryDx=0;entryDy=0;" edge="1" parent="1" source="lcivj8wxRk5je3pBpGyj-41" target="lcivj8wxRk5je3pBpGyj-52">
          <mxGeometry width="100" height="100" relative="1" as="geometry">
            <mxPoint x="700" y="740" as="sourcePoint" />
            <mxPoint x="800" y="640" as="targetPoint" />
          </mxGeometry>
        </mxCell>
        <mxCell id="lcivj8wxRk5je3pBpGyj-119" value="Покупка" style="swimlane;fontStyle=0;childLayout=stackLayout;horizontal=1;startSize=26;fillColor=#ffe6cc;horizontalStack=0;resizeParent=1;resizeParentMax=0;resizeLast=0;collapsible=1;marginBottom=0;swimlaneFillColor=#ffffff;align=center;strokeWidth=1;fontSize=13;strokeColor=#d79b00;" vertex="1" parent="1">
          <mxGeometry x="1260" y="681" width="160" height="88" as="geometry" />
        </mxCell>
        <mxCell id="lcivj8wxRk5je3pBpGyj-122" value="TransactionID" style="shape=partialRectangle;top=0;left=0;right=0;bottom=0;align=left;verticalAlign=top;fillColor=none;spacingLeft=34;spacingRight=4;overflow=hidden;rotatable=0;points=[[0,0.5],[1,0.5]];portConstraint=eastwest;dropTarget=0;fontStyle=2" vertex="1" parent="lcivj8wxRk5je3pBpGyj-119">
          <mxGeometry y="26" width="160" height="26" as="geometry" />
        </mxCell>
        <mxCell id="lcivj8wxRk5je3pBpGyj-123" value="FK" style="shape=partialRectangle;top=0;left=0;bottom=0;fillColor=none;align=left;verticalAlign=top;spacingLeft=4;spacingRight=4;overflow=hidden;rotatable=0;points=[];portConstraint=eastwest;part=1;fontStyle=2" vertex="1" connectable="0" parent="lcivj8wxRk5je3pBpGyj-122">
          <mxGeometry width="30" height="26" as="geometry" />
        </mxCell>
        <mxCell id="lcivj8wxRk5je3pBpGyj-134" value="ClientID" style="shape=partialRectangle;top=0;left=0;right=0;bottom=0;align=left;verticalAlign=top;fillColor=none;spacingLeft=34;spacingRight=4;overflow=hidden;rotatable=0;points=[[0,0.5],[1,0.5]];portConstraint=eastwest;dropTarget=0;fontStyle=2" vertex="1" parent="lcivj8wxRk5je3pBpGyj-119">
          <mxGeometry y="52" width="160" height="26" as="geometry" />
        </mxCell>
        <mxCell id="lcivj8wxRk5je3pBpGyj-135" value="FK" style="shape=partialRectangle;top=0;left=0;bottom=0;fillColor=none;align=left;verticalAlign=top;spacingLeft=4;spacingRight=4;overflow=hidden;rotatable=0;points=[];portConstraint=eastwest;part=1;fontStyle=2" vertex="1" connectable="0" parent="lcivj8wxRk5je3pBpGyj-134">
          <mxGeometry width="30" height="26" as="geometry" />
        </mxCell>
        <mxCell id="lcivj8wxRk5je3pBpGyj-132" value="" style="shape=partialRectangle;top=0;left=0;right=0;bottom=0;align=left;verticalAlign=top;fillColor=none;spacingLeft=34;spacingRight=4;overflow=hidden;rotatable=0;points=[[0,0.5],[1,0.5]];portConstraint=eastwest;dropTarget=0;" vertex="1" parent="lcivj8wxRk5je3pBpGyj-119">
          <mxGeometry y="78" width="160" height="10" as="geometry" />
        </mxCell>
        <mxCell id="lcivj8wxRk5je3pBpGyj-133" value="" style="shape=partialRectangle;top=0;left=0;bottom=0;fillColor=none;align=left;verticalAlign=top;spacingLeft=4;spacingRight=4;overflow=hidden;rotatable=0;points=[];portConstraint=eastwest;part=1;" vertex="1" connectable="0" parent="lcivj8wxRk5je3pBpGyj-132">
          <mxGeometry width="30" height="10" as="geometry" />
        </mxCell>
        <mxCell id="lcivj8wxRk5je3pBpGyj-136" value="" style="edgeStyle=entityRelationEdgeStyle;fontSize=12;html=1;endArrow=ERoneToMany;startArrow=ERmandOne;" edge="1" parent="1" source="lcivj8wxRk5je3pBpGyj-52" target="lcivj8wxRk5je3pBpGyj-119">
          <mxGeometry width="100" height="100" relative="1" as="geometry">
            <mxPoint x="1180" y="810" as="sourcePoint" />
            <mxPoint x="1280" y="710" as="targetPoint" />
          </mxGeometry>
        </mxCell>
        <mxCell id="lcivj8wxRk5je3pBpGyj-137" value="" style="edgeStyle=entityRelationEdgeStyle;fontSize=12;html=1;endArrow=ERzeroToMany;startArrow=ERmandOne;" edge="1" parent="1" source="lcivj8wxRk5je3pBpGyj-63" target="lcivj8wxRk5je3pBpGyj-119">
          <mxGeometry width="100" height="100" relative="1" as="geometry">
            <mxPoint x="1180" y="810" as="sourcePoint" />
            <mxPoint x="1280" y="710" as="targetPoint" />
          </mxGeometry>
        </mxCell>
        <mxCell id="lcivj8wxRk5je3pBpGyj-138" value="Покупка" style="swimlane;fontStyle=0;childLayout=stackLayout;horizontal=1;startSize=26;fillColor=#ffe6cc;horizontalStack=0;resizeParent=1;resizeParentMax=0;resizeLast=0;collapsible=1;marginBottom=0;swimlaneFillColor=#ffffff;align=center;strokeWidth=1;fontSize=13;strokeColor=#d79b00;" vertex="1" parent="1">
          <mxGeometry x="480" y="478" width="160" height="88" as="geometry" />
        </mxCell>
        <mxCell id="lcivj8wxRk5je3pBpGyj-139" value="MuseumID" style="shape=partialRectangle;top=0;left=0;right=0;bottom=0;align=left;verticalAlign=top;fillColor=none;spacingLeft=34;spacingRight=4;overflow=hidden;rotatable=0;points=[[0,0.5],[1,0.5]];portConstraint=eastwest;dropTarget=0;fontStyle=2" vertex="1" parent="lcivj8wxRk5je3pBpGyj-138">
          <mxGeometry y="26" width="160" height="26" as="geometry" />
        </mxCell>
        <mxCell id="lcivj8wxRk5je3pBpGyj-140" value="FK" style="shape=partialRectangle;top=0;left=0;bottom=0;fillColor=none;align=left;verticalAlign=top;spacingLeft=4;spacingRight=4;overflow=hidden;rotatable=0;points=[];portConstraint=eastwest;part=1;fontStyle=2" vertex="1" connectable="0" parent="lcivj8wxRk5je3pBpGyj-139">
          <mxGeometry width="30" height="26" as="geometry" />
        </mxCell>
        <mxCell id="lcivj8wxRk5je3pBpGyj-141" value="CompanyID" style="shape=partialRectangle;top=0;left=0;right=0;bottom=0;align=left;verticalAlign=top;fillColor=none;spacingLeft=34;spacingRight=4;overflow=hidden;rotatable=0;points=[[0,0.5],[1,0.5]];portConstraint=eastwest;dropTarget=0;fontStyle=2" vertex="1" parent="lcivj8wxRk5je3pBpGyj-138">
          <mxGeometry y="52" width="160" height="26" as="geometry" />
        </mxCell>
        <mxCell id="lcivj8wxRk5je3pBpGyj-142" value="FK" style="shape=partialRectangle;top=0;left=0;bottom=0;fillColor=none;align=left;verticalAlign=top;spacingLeft=4;spacingRight=4;overflow=hidden;rotatable=0;points=[];portConstraint=eastwest;part=1;fontStyle=2" vertex="1" connectable="0" parent="lcivj8wxRk5je3pBpGyj-141">
          <mxGeometry width="30" height="26" as="geometry" />
        </mxCell>
        <mxCell id="lcivj8wxRk5je3pBpGyj-143" value="" style="shape=partialRectangle;top=0;left=0;right=0;bottom=0;align=left;verticalAlign=top;fillColor=none;spacingLeft=34;spacingRight=4;overflow=hidden;rotatable=0;points=[[0,0.5],[1,0.5]];portConstraint=eastwest;dropTarget=0;" vertex="1" parent="lcivj8wxRk5je3pBpGyj-138">
          <mxGeometry y="78" width="160" height="10" as="geometry" />
        </mxCell>
        <mxCell id="lcivj8wxRk5je3pBpGyj-144" value="" style="shape=partialRectangle;top=0;left=0;bottom=0;fillColor=none;align=left;verticalAlign=top;spacingLeft=4;spacingRight=4;overflow=hidden;rotatable=0;points=[];portConstraint=eastwest;part=1;" vertex="1" connectable="0" parent="lcivj8wxRk5je3pBpGyj-143">
          <mxGeometry width="30" height="10" as="geometry" />
        </mxCell>
        <mxCell id="lcivj8wxRk5je3pBpGyj-145" value="" style="edgeStyle=orthogonalEdgeStyle;fontSize=12;html=1;endArrow=ERzeroToMany;startArrow=ERmandOne;" edge="1" parent="1" source="lcivj8wxRk5je3pBpGyj-41" target="lcivj8wxRk5je3pBpGyj-138">
          <mxGeometry width="100" height="100" relative="1" as="geometry">
            <mxPoint x="720" y="610" as="sourcePoint" />
            <mxPoint x="820" y="510" as="targetPoint" />
            <Array as="points">
              <mxPoint x="820" y="494" />
              <mxPoint x="820" y="494" />
            </Array>
          </mxGeometry>
        </mxCell>
        <mxCell id="lcivj8wxRk5je3pBpGyj-146" value="" style="edgeStyle=orthogonalEdgeStyle;fontSize=12;html=1;endArrow=ERzeroToMany;startArrow=ERmandOne;" edge="1" parent="1" source="lcivj8wxRk5je3pBpGyj-12" target="lcivj8wxRk5je3pBpGyj-138">
          <mxGeometry width="100" height="100" relative="1" as="geometry">
            <mxPoint x="630" y="640" as="sourcePoint" />
            <mxPoint x="730" y="540" as="targetPoint" />
            <Array as="points">
              <mxPoint x="560" y="494" />
            </Array>
          </mxGeometry>
        </mxCell>
      </root>
    </mxGraphModel>
  </diagram>
</mxfile>
